# xmcd CD database file
#
# Track frame offsets:
#	150
#	11685
#	28302
#	48915
#	64220
#	84050
#	90565
#	118355
#	144100
#	165530
#	187155
#	206897
#	225252
#	250815
#	257447
#	281080
#	300345
#
# Disc length: 4291 seconds
#
# Revision: 0
# Processed by: cddbd v1.5.1PL0 Copyright (c) Steve Scherf et al.
# Submitted via: CDex 1.51
#
DISCID=e010c111
DTITLE=Blackman Thomas - Meets Al Agami and Remee!
DYEAR=1994
DGENRE=Jazz
TTITLE0=Intro
TTITLE1=Like This (Give Me a Kiss)
TTITLE2=The Way U Wanna See Me
TTITLE3=Next Door Man
TTITLE4=Love U Day
TTITLE5=Piper Hymer
TTITLE6=Keep It Simple
TTITLE7=Naturally Materialistic
TTITLE8=Punch
TTITLE9=That's Life
TTITLE10=Easy Ed
TTITLE11=Alive at yhe Picadilly (Part II)
TTITLE12=Aphorisms
TTITLE13=Outtro
TTITLE14=Love U Day (Bonus Remix)
TTITLE15=Punch (Bonus Remix)
TTITLE16=Keep It Simple (Bonus Remix)
EXTD=YEAR: 1994
EXTT0=
EXTT1=
EXTT2=
EXTT3=
EXTT4=
EXTT5=
EXTT6=
EXTT7=
EXTT8=
EXTT9=
EXTT10=
EXTT11=
EXTT12=
EXTT13=
EXTT14=
EXTT15=
EXTT16=
PLAYORDER=
